<svg xmlns="http://www.w3.org/2000/svg" viewBox="0 0 98 96" role="img" aria-label="GitHub">
  <path fill="#24292f" d="M49 0C21.94 0 0 22 0 49.16c0 21.72 14.04 40.14 33.5 46.65 2.45.45 3.35-1.07 3.35-2.38 0-1.17-.04-4.27-.07-8.38-13.63 2.97-16.5-6.6-16.5-6.6-2.23-5.68-5.44-7.2-5.44-7.2-4.45-3.05.34-2.99.34-2.99 4.92.35 7.51 5.07 7.51 5.07 4.37 7.52 11.47 5.35 14.27 4.09.44-3.18 1.71-5.35 3.11-6.58-10.88-1.24-22.32-5.46-22.32-24.3 0-5.37 1.91-9.76 5.05-13.2-.51-1.24-2.19-6.24.48-13.01 0 0 4.12-1.32 13.48 5.04A46.79 46.79 0 0 1 49 23.71c4.17.02 8.36.56 12.28 1.66 9.36-6.36 13.47-5.04 13.47-5.04 2.67 6.77.99 11.77.49 13.01 3.14 3.44 5.04 7.83 5.04 13.2 0 18.89-11.46 23.05-22.38 24.27 1.76 1.52 3.33 4.52 3.33 9.11 0 6.58-.06 11.89-.06 13.51 0 1.32.88 2.86 3.38 2.37C83.99 89.28 98 70.88 98 49.16 98 22 76.06 0 49 0Z"/>
</svg>
