<svg width="32" height="32" viewBox="0 0 32 32" fill="none" xmlns="http://www.w3.org/2000/svg" role="img" aria-label="WeChat">
  <rect width="32" height="32" rx="8" fill="#1AAD19"/>
  <path d="M14.2 8.2C9.9 8.2 6.4 10.9 6.4 14.2c0 1.9 1.1 3.6 2.9 4.7l-.7 2.1 2.5-1.2c.9.3 1.9.5 3.1.5 4.3 0 7.8-2.7 7.8-6.1 0-3.3-3.5-6-7.8-6Z" fill="white"/>
  <path d="M18.7 15.2c-3.8 0-6.9 2.4-6.9 5.3s3.1 5.3 6.9 5.3c.9 0 1.8-.1 2.6-.4l2.2 1-.6-1.8c1.6-1 2.6-2.5 2.6-4.1 0-2.9-3.1-5.3-6.8-5.3Z" fill="white"/>
  <circle cx="11.8" cy="13.2" r="1" fill="#1AAD19"/>
  <circle cx="16.7" cy="13.2" r="1" fill="#1AAD19"/>
  <circle cx="16.5" cy="19.8" r=".85" fill="#1AAD19"/>
  <circle cx="21.1" cy="19.8" r=".85" fill="#1AAD19"/>
</svg>
