<svg xmlns="http://www.w3.org/2000/svg" viewBox="0 0 512 512">
<path d="M343.305,31.628c-1.044,0-2.072-0.111-3.1-0.316c-1.012-0.19-2.009-0.506-2.958-0.902s-1.866-0.886-2.72-1.455 c-0.87-0.569-1.677-1.234-2.42-1.961c-2.942-2.942-4.618-7.022-4.618-11.182c0-1.028,0.095-2.072,0.301-3.084 c0.206-1.012,0.506-2.009,0.902-2.973c0.395-0.949,0.886-1.866,1.455-2.72c0.585-0.87,1.234-1.677,1.961-2.404 c0.743-0.728,1.55-1.392,2.42-1.961c0.854-0.585,1.771-1.06,2.72-1.455s1.945-0.712,2.958-0.917c2.04-0.395,4.144-0.395,6.184,0 c1.012,0.206,2.009,0.522,2.958,0.917c0.949,0.395,1.882,0.87,2.736,1.455c0.854,0.569,1.677,1.234,2.404,1.961 c0.728,0.728,1.392,1.534,1.961,2.404c0.569,0.854,1.06,1.771,1.455,2.72c0.395,0.965,0.696,1.961,0.902,2.973 c0.206,1.012,0.316,2.056,0.316,3.084c0,4.16-1.692,8.24-4.634,11.182c-0.728,0.728-1.55,1.392-2.404,1.961 c-0.854,0.569-1.787,1.06-2.736,1.455s-1.945,0.712-2.958,0.902C345.361,31.518,344.333,31.628,343.305,31.628z"/>
<path d="M168.694,31.628c-1.028,0-2.056-0.111-3.084-0.316c-1.012-0.19-2.009-0.506-2.958-0.902 c-0.949-0.395-1.866-0.886-2.736-1.455c-0.854-0.569-1.677-1.234-2.404-1.961c-0.728-0.728-1.392-1.534-1.961-2.404 c-0.569-0.854-1.06-1.771-1.455-2.736c-0.395-0.949-0.696-1.945-0.902-2.958c-0.206-1.012-0.316-2.056-0.316-3.084 s0.111-2.072,0.316-3.084c0.206-1.012,0.506-2.009,0.902-2.973c0.395-0.949,0.886-1.866,1.455-2.72 c0.569-0.87,1.234-1.677,1.961-2.404c0.728-0.728,1.55-1.392,2.404-1.961c0.87-0.585,1.787-1.06,2.736-1.455 c0.949-0.395,1.945-0.712,2.958-0.902c2.04-0.411,4.144-0.411,6.184,0c1.012,0.19,2.009,0.506,2.958,0.902 c0.949,0.395,1.866,0.87,2.736,1.455c0.854,0.569,1.677,1.234,2.404,1.961s1.376,1.534,1.961,2.404 c0.569,0.854,1.06,1.771,1.455,2.72c0.395,0.965,0.696,1.961,0.902,2.973s0.301,2.056,0.301,3.084s-0.095,2.072-0.301,3.084 s-0.506,2.009-0.902,2.958c-0.395,0.965-0.886,1.882-1.455,2.736c-0.585,0.87-1.234,1.677-1.961,2.404s-1.55,1.392-2.404,1.961 c-0.87,0.569-1.787,1.06-2.736,1.455c-0.949,0.395-1.945,0.712-2.958,0.902C170.766,31.518,169.738,31.628,168.694,31.628z"/>
<path fill="#EB87BF" d="M461.11,62.587c16.479,42.748,57.895,176.963-35.716,253.72 c-44.554,36.531-106.203,47.447-138.192,50.697V185.683C287.202,184.721,289.252,91.969,461.11,62.587z"/>
<path fill="#00D7DF" d="M425.394,316.306c-44.554,36.531-106.203,47.447-138.192,50.697V225.646 c-0.044-0.005-0.09-0.009-0.134-0.013v161.148c0,0.856,2.045,83.288,173.443,109.402c14.796-34.204,49.729-134.287-11.57-203.687 C442.259,300.88,434.468,308.866,425.394,316.306z"/>
<path fill="#EB87BF" d="M50.891,62.587C222.749,91.97,224.799,184.721,224.799,185.684v181.32 c-31.99-3.25-93.638-14.167-138.192-50.697C-7.005,239.55,34.412,105.335,50.891,62.587z"/>
<path fill="#00D7DF" d="M224.799,225.646v141.357c-31.99-3.25-93.638-14.167-138.192-50.697 c-9.074-7.44-16.865-15.426-23.547-23.81c-61.299,69.4-26.366,169.483-11.57,203.687 c171.398-26.114,173.443-108.547,173.443-109.402V225.633C224.889,225.636,224.842,225.641,224.799,225.646z"/>
<path fill="#FFF476" d="M256,431.243c-17.001,0-30.783-13.782-30.783-30.783V173.321 c0-17.001,13.782-30.783,30.783-30.783c17.001,0,30.783,13.782,30.783,30.783v227.138C286.783,417.461,273,431.243,256,431.243z"/>
<path d="M500.352,176.46c-0.745-50.704-15.66-96.675-24.483-119.564c-2.709-7.027-10.001-11.169-17.423-9.901 c-75.228,12.862-129.395,39.039-160.996,77.803c-3.921,4.81-7.244,9.536-10.075,14.1c-0.77-0.702-1.571-1.373-2.387-2.023 l48.371-70.619c4.936-7.207,3.095-17.05-4.112-21.986c-7.206-4.935-17.05-3.095-21.986,4.112L256,123.22l-51.26-74.837 c-4.938-7.207-14.782-9.047-21.986-4.112c-7.207,4.936-9.047,14.78-4.112,21.986l48.371,70.619c-0.816,0.65-1.616,1.321-2.387,2.023 c-2.83-4.565-6.154-9.29-10.075-14.1c-31.601-38.764-85.768-64.941-160.996-77.803c-7.426-1.27-14.714,2.872-17.423,9.901 c-8.824,22.889-23.739,68.861-24.483,119.564c-0.667,45.41,9.876,84.112,31.387,115.64c-23.485,31.566-33.6,70.736-30.068,116.651 c3.111,40.448,16.376,76.076,24.004,93.711c2.532,5.852,8.281,9.537,14.508,9.537c0.791,0,1.59-0.06,2.39-0.182 c74.82-11.399,128.747-34.66,160.284-69.133c3.095-3.383,5.817-6.727,8.234-9.999c8.487,8.848,20.412,14.372,33.611,14.372 s25.124-5.525,33.611-14.372c2.417,3.272,5.139,6.616,8.234,9.999c31.536,34.475,85.464,57.734,160.284,69.133 c0.8,0.122,1.599,0.182,2.39,0.182c6.227,0,11.976-3.685,14.508-9.537c7.63-17.637,20.893-53.263,24.004-93.711 c3.532-45.914-6.583-85.085-30.068-116.651C490.475,260.572,501.018,221.869,500.352,176.46z M303.018,185.934 c0.093-1.762,1.522-20.714,20.474-42.977c17.54-20.605,53.743-47.599,127.319-62.374c14.753,43.344,37.786,138.835-15.941,204.079 c-0.286,0.345-0.577,0.686-0.867,1.03c-1.164,1.385-2.369,2.755-3.604,4.112c-0.943,1.03-1.893,2.053-2.871,3.059 c-0.47,0.487-0.936,0.974-1.417,1.457c-1.472,1.474-2.98,2.921-4.523,4.34c-0.354,0.326-0.716,0.648-1.076,0.973 c-1.681,1.512-3.386,3.003-5.145,4.446c-34.339,28.154-80.204,39.99-112.349,44.961V225.647L303.018,185.934z M61.19,80.583c73.575,14.775,109.777,41.769,127.319,62.374c18.953,22.263,20.381,41.215,20.474,42.977v39.71v123.392 c-13.059-2.02-28.382-5.172-44.277-10.091c-23.231-7.19-47.683-18.152-68.071-34.87c-0.013-0.011-0.025-0.022-0.04-0.033 c-1.738-1.427-3.427-2.901-5.09-4.398c-0.369-0.332-0.74-0.663-1.104-0.996c-1.536-1.411-3.037-2.852-4.503-4.319 c-0.49-0.492-0.966-0.99-1.446-1.487c-0.962-0.992-1.9-2.001-2.83-3.015c-1.257-1.381-2.483-2.774-3.666-4.183 c-0.272-0.323-0.547-0.644-0.816-0.968C23.4,219.43,46.437,123.93,61.19,80.583z M209.117,386.441 c-0.13,1.76-1.795,17.89-20.257,36.974c-17.599,18.192-53.87,42.054-127.456,55.108c-12.836-33.916-32.714-105.997,2.686-161.232 c1.89,1.865,3.835,3.693,5.827,5.491c0.228,0.206,0.459,0.41,0.688,0.615c1.949,1.741,3.93,3.462,5.975,5.139 c1.403,1.151,2.825,2.273,4.256,3.377c0.473,0.364,0.952,0.715,1.427,1.074c0.968,0.732,1.939,1.46,2.92,2.17 c0.565,0.41,1.136,0.81,1.703,1.213c0.906,0.642,1.814,1.28,2.728,1.904c0.599,0.41,1.202,0.815,1.806,1.216 c0.903,0.603,1.811,1.197,2.722,1.784c0.606,0.389,1.212,0.778,1.82,1.161c0.939,0.59,1.882,1.169,2.828,1.743 c0.58,0.353,1.161,0.709,1.745,1.055c1.036,0.615,2.078,1.215,3.122,1.811c0.497,0.283,0.99,0.574,1.488,0.853 c1.484,0.832,2.973,1.646,4.47,2.44c0.059,0.032,0.117,0.065,0.176,0.095c1.563,0.827,3.132,1.632,4.704,2.42 c0.487,0.244,0.976,0.476,1.463,0.716c1.087,0.535,2.172,1.066,3.261,1.582c0.595,0.282,1.189,0.555,1.786,0.83 c0.993,0.46,1.985,0.917,2.98,1.362c0.625,0.28,1.249,0.555,1.876,0.829c0.974,0.427,1.95,0.848,2.926,1.261 c0.625,0.264,1.249,0.528,1.876,0.788c0.996,0.413,1.993,0.816,2.991,1.216c0.595,0.239,1.189,0.479,1.784,0.712 c1.082,0.424,2.162,0.835,3.242,1.243c0.505,0.19,1.007,0.386,1.51,0.573c1.496,0.555,2.991,1.096,4.482,1.621 c0.082,0.028,0.164,0.06,0.247,0.089c1.586,0.557,3.168,1.094,4.746,1.618c0.468,0.155,0.933,0.302,1.401,0.454 c1.104,0.361,2.208,0.718,3.307,1.063c0.576,0.18,1.148,0.354,1.722,0.531c0.989,0.304,1.977,0.604,2.961,0.895 c0.604,0.179,1.205,0.354,1.806,0.528c0.957,0.277,1.911,0.55,2.863,0.816c0.601,0.168,1.2,0.335,1.798,0.498 c0.955,0.261,1.907,0.516,2.856,0.766c0.573,0.152,1.147,0.304,1.718,0.451c1.02,0.264,2.032,0.517,3.043,0.767 c0.481,0.12,0.966,0.244,1.446,0.359c1.325,0.323,2.64,0.634,3.948,0.935c0.158,0.036,0.318,0.076,0.476,0.112 c1.471,0.337,2.926,0.66,4.372,0.973c0.408,0.089,0.808,0.169,1.215,0.256c1.026,0.218,2.05,0.433,3.062,0.639 c0.516,0.104,1.025,0.204,1.537,0.305c0.892,0.177,1.779,0.351,2.659,0.519c0.539,0.103,1.074,0.202,1.609,0.302 c0.845,0.157,1.684,0.31,2.516,0.459c0.53,0.095,1.055,0.188,1.58,0.278c0.829,0.144,1.65,0.283,2.464,0.419 c0.503,0.084,1.007,0.169,1.504,0.25c0.853,0.139,1.689,0.27,2.524,0.4c0.435,0.068,0.876,0.138,1.306,0.204 c1.052,0.16,2.086,0.312,3.109,0.457c0.193,0.028,0.394,0.059,0.587,0.085c0.021,0.003,0.043,0.006,0.063,0.009L209.117,386.441z M270.967,400.46c0,8.253-6.714,14.967-14.967,14.967c-8.253,0-14.967-6.714-14.967-14.967V173.321 c0-8.253,6.714-14.967,14.967-14.967c8.253,0,14.967,6.714,14.967,14.967V400.46z M450.597,478.523 c-73.586-13.055-109.856-36.917-127.456-55.108c-18.462-19.084-20.129-35.213-20.257-36.974v-5.415 c0.021-0.003,0.043-0.006,0.063-0.009c0.193-0.027,0.392-0.059,0.587-0.085c1.023-0.147,2.058-0.297,3.109-0.457 c0.43-0.065,0.871-0.136,1.306-0.204c0.835-0.13,1.673-0.261,2.524-0.4c0.498-0.081,1.001-0.166,1.504-0.25 c0.816-0.136,1.635-0.275,2.464-0.419c0.523-0.092,1.05-0.185,1.58-0.278c0.832-0.149,1.672-0.302,2.516-0.459 c0.535-0.1,1.069-0.199,1.61-0.302c0.878-0.168,1.765-0.342,2.656-0.519c0.514-0.101,1.025-0.202,1.544-0.307 c1.009-0.204,2.028-0.419,3.051-0.636c0.41-0.087,0.815-0.169,1.226-0.258c1.444-0.312,2.899-0.634,4.37-0.971 c0.158-0.036,0.319-0.076,0.478-0.112c1.306-0.302,2.619-0.612,3.945-0.935c0.482-0.117,0.968-0.242,1.452-0.362 c1.009-0.25,2.02-0.503,3.038-0.766c0.571-0.147,1.145-0.301,1.718-0.451c0.949-0.25,1.9-0.505,2.856-0.766 c0.598-0.164,1.199-0.331,1.8-0.498c0.951-0.266,1.903-0.538,2.858-0.815c0.603-0.176,1.207-0.35,1.811-0.53 c0.981-0.291,1.966-0.59,2.951-0.894c0.577-0.177,1.153-0.351,1.73-0.533c1.096-0.343,2.195-0.699,3.294-1.058 c0.471-0.153,0.941-0.302,1.412-0.459c1.577-0.524,3.157-1.06,4.742-1.616c0.098-0.035,0.195-0.071,0.293-0.106 c1.477-0.52,2.956-1.055,4.436-1.604c0.511-0.19,1.022-0.387,1.531-0.58c1.074-0.405,2.148-0.815,3.222-1.235 c0.601-0.236,1.2-0.478,1.801-0.718c0.99-0.397,1.98-0.797,2.97-1.207c0.633-0.263,1.264-0.528,1.895-0.796 c0.968-0.41,1.936-0.827,2.904-1.251c0.633-0.277,1.264-0.555,1.896-0.838c0.987-0.441,1.971-0.894,2.954-1.351 c0.603-0.28,1.207-0.557,1.809-0.841c1.079-0.511,2.153-1.036,3.226-1.564c0.498-0.245,0.998-0.484,1.496-0.732 c1.569-0.786,3.135-1.588,4.693-2.414c0.084-0.044,0.166-0.092,0.25-0.136c1.471-0.781,2.934-1.582,4.394-2.399 c0.512-0.288,1.02-0.585,1.531-0.878c1.028-0.587,2.055-1.178,3.076-1.784c0.596-0.354,1.188-0.716,1.781-1.076 c0.933-0.566,1.863-1.137,2.79-1.719c0.62-0.389,1.237-0.784,1.852-1.181c0.898-0.579,1.792-1.164,2.682-1.759 c0.617-0.411,1.231-0.822,1.844-1.242c0.898-0.614,1.789-1.24,2.679-1.87c0.585-0.414,1.172-0.826,1.752-1.248 c0.955-0.693,1.903-1.404,2.847-2.118c0.498-0.376,1.001-0.745,1.496-1.126c1.363-1.052,2.714-2.121,4.052-3.215 c0.063-0.052,0.128-0.1,0.191-0.152c2.051-1.681,4.038-3.407,5.993-5.155c0.22-0.196,0.44-0.391,0.658-0.588 c1.996-1.801,3.945-3.633,5.838-5.502C483.31,372.527,463.434,444.608,450.597,478.523z"/>
<path d="M351.733,307.915c-6.372,0-12.378-3.88-14.782-10.187c-3.111-8.163,0.984-17.301,9.145-20.412 c14.314-5.457,26.288-12.09,35.588-19.715c20.623-16.911,30.883-41.309,31.368-74.589c0.128-8.734,7.318-15.649,16.046-15.584 c8.734,0.128,15.712,7.312,15.584,16.046c-0.63,43.162-14.676,75.412-42.941,98.589c-11.943,9.792-26.873,18.14-44.379,24.812 C355.51,307.58,353.606,307.915,351.733,307.915z"/>
<path d="M424.015,150.313c-1.028,0-2.056-0.111-3.084-0.316c-1.012-0.206-2.009-0.506-2.958-0.902s-1.866-0.886-2.736-1.455 c-0.854-0.569-1.677-1.234-2.404-1.961c-0.728-0.728-1.392-1.55-1.961-2.404c-0.569-0.854-1.06-1.787-1.455-2.736 c-0.395-0.949-0.696-1.945-0.902-2.958c-0.206-1.028-0.316-2.056-0.316-3.084c0-1.044,0.111-2.072,0.316-3.1 c0.206-1.012,0.506-2.009,0.902-2.958c0.395-0.949,0.886-1.866,1.455-2.736c0.569-0.854,1.234-1.661,1.961-2.404 c0.728-0.728,1.55-1.376,2.404-1.961c0.87-0.569,1.787-1.06,2.736-1.455c0.949-0.395,1.945-0.696,2.958-0.902 c2.04-0.411,4.144-0.411,6.184,0c1.012,0.206,1.993,0.506,2.958,0.902c0.949,0.395,1.866,0.886,2.72,1.455 c0.87,0.585,1.677,1.234,2.404,1.961c0.743,0.743,1.392,1.55,1.977,2.404c0.569,0.87,1.06,1.787,1.455,2.736 c0.395,0.949,0.696,1.945,0.902,2.958c0.206,1.028,0.301,2.056,0.301,3.1c0,1.028-0.095,2.056-0.301,3.084 c-0.206,1.012-0.506,2.009-0.902,2.958c-0.395,0.949-0.886,1.882-1.455,2.736c-0.585,0.854-1.234,1.677-1.977,2.404 c-0.728,0.728-1.534,1.392-2.404,1.961c-0.854,0.569-1.771,1.06-2.72,1.455c-0.965,0.395-1.945,0.696-2.958,0.902 C426.087,150.202,425.059,150.313,424.015,150.313z"/>
<path d="M165.783,307.915c-1.873,0-3.777-0.335-5.631-1.042c-17.502-6.671-32.434-15.021-44.377-24.811 c-25.092-20.575-39.336-49.484-42.34-85.925c-0.718-8.705,5.759-16.344,14.464-17.063c8.694-0.715,16.344,5.759,17.063,14.464 c2.304,27.963,12.403,48.918,30.872,64.06c9.301,7.627,21.276,14.26,35.588,19.715c8.163,3.111,12.258,12.251,9.145,20.412 C178.16,304.035,172.153,307.915,165.783,307.915z"/>
<path d="M83.129,147.389c-1.028,0-2.072-0.095-3.084-0.301s-2.009-0.506-2.958-0.902c-0.965-0.395-1.882-0.886-2.736-1.455 c-0.87-0.585-1.677-1.249-2.404-1.977c-2.942-2.942-4.634-7.022-4.634-11.182c0-1.028,0.111-2.072,0.316-3.084 s0.506-2.009,0.902-2.958c0.395-0.965,0.886-1.882,1.455-2.736c0.569-0.87,1.234-1.677,1.961-2.404 c0.728-0.728,1.534-1.392,2.404-1.961c0.854-0.569,1.771-1.06,2.736-1.455c0.949-0.395,1.945-0.696,2.958-0.902 c5.14-1.044,10.597,0.648,14.266,4.318c0.728,0.728,1.392,1.534,1.977,2.404c0.569,0.854,1.06,1.771,1.455,2.736 c0.395,0.949,0.696,1.945,0.902,2.958c0.206,1.012,0.301,2.056,0.301,3.084c0,4.16-1.692,8.24-4.634,11.182 C91.369,145.695,87.304,147.389,83.129,147.389z"/>
</svg>
